<?xml version="1.0" standalone="no"?>
<!DOCTYPE svg PUBLIC "-//W3C//DTD SVG 20010904//EN"
 "http://www.w3.org/TR/2001/REC-SVG-20010904/DTD/svg10.dtd">
<svg version="1.0" xmlns="http://www.w3.org/2000/svg"
 width="1086.000000pt" height="1448.000000pt" viewBox="0 0 1086.000000 1448.000000"
 preserveAspectRatio="xMidYMid slice">

<g transform="translate(0.000000,1448.000000) scale(0.100000,-0.100000)"
fill="#AFC7FF" stroke="none">
<path d="M10251 7694 c0 -11 3 -14 6 -6 3 7 2 16 -1 19 -3 4 -6 -2 -5 -13z"/>
<path d="M10261 7654 c0 -11 3 -14 6 -6 3 7 2 16 -1 19 -3 4 -6 -2 -5 -13z"/>
<path d="M10271 7614 c0 -11 3 -14 6 -6 3 7 2 16 -1 19 -3 4 -6 -2 -5 -13z"/>
<path d="M10821 6363 c-1 -12 -6 -25 -11 -28 -6 -4 -8 -10 -5 -14 2 -5 -7 -6
-22 -3 -14 3 -28 13 -30 23 -9 32 -23 21 -20 -15 2 -28 25 -67 34 -58 2 1 8 2
13 2 21 0 8 -18 -24 -34 -18 -8 -39 -22 -46 -31 -7 -8 -18 -15 -24 -15 -7 0
-17 -5 -24 -12 -6 -6 -17 -13 -24 -14 -28 -6 -110 -54 -92 -54 15 0 16 -2 5
-9 -8 -5 -19 -7 -25 -5 -17 6 -71 -34 -71 -52 0 -10 -6 -18 -13 -20 -7 -1 -8
0 -2 3 13 6 13 23 1 23 -5 0 -23 -12 -40 -26 -17 -14 -31 -21 -31 -15 0 6 -11
11 -25 11 -21 0 -25 5 -25 30 0 30 14 41 23 18 4 -10 6 -10 6 0 2 24 30 12 34
-15 3 -16 4 -7 4 18 -1 46 -1 46 -34 45 -24 -1 -44 -11 -68 -35 -19 -18 -45
-34 -59 -35 -20 -1 -26 -8 -31 -34 -4 -24 -10 -32 -21 -28 -10 4 -14 -2 -14
-18 0 -13 -6 -23 -15 -24 -8 -1 -22 -3 -30 -4 -24 -2 -17 -18 8 -19 21 0 21
-1 2 -9 -30 -13 -57 -12 -49 2 4 7 3 8 -4 4 -7 -4 -12 -16 -12 -28 0 -17 -4
-19 -27 -13 -16 3 -32 13 -36 21 -6 11 -18 13 -43 8 -27 -5 -34 -3 -34 9 0 20
-60 51 -74 37 -6 -6 -5 -18 4 -34 15 -28 8 -56 -15 -56 -10 0 -17 14 -21 42
-6 35 -9 39 -19 25 -7 -9 -15 -14 -19 -10 -4 4 -10 3 -14 -3 -4 -5 -26 -18
-48 -28 -31 -13 -46 -15 -61 -8 -14 8 -27 7 -46 -3 -18 -9 -27 -10 -27 -3 0 6
-3 8 -6 5 -4 -3 -15 -2 -25 4 -15 8 -19 6 -19 -6 0 -12 -6 -15 -22 -10 -16 4
-19 3 -9 -3 9 -7 10 -12 2 -16 -6 -4 -9 -11 -6 -16 3 -4 -4 -10 -15 -13 -23
-6 -46 25 -34 46 16 28 -28 -24 -81 -97 -44 -60 -52 -77 -36 -71 24 7 29 -10
5 -19 -10 -4 -14 -12 -10 -22 5 -13 1 -15 -16 -11 -20 5 -33 -9 -100 -108 -43
-62 -78 -118 -78 -123 0 -5 -7 -15 -15 -22 -30 -25 -14 8 56 114 52 79 68 111
60 119 -20 20 -13 57 13 66 37 15 40 39 5 46 -23 5 -29 12 -29 31 0 22 3 24
22 18 20 -6 21 -5 9 10 -9 11 -18 13 -25 7 -6 -6 -24 -12 -39 -15 -15 -2 -31
-7 -37 -11 -5 -3 -10 -1 -10 4 0 6 5 11 12 11 6 0 9 2 6 5 -8 9 -38 -6 -32
-16 9 -16 -7 -33 -18 -18 -7 10 -8 8 -3 -7 3 -13 -1 -26 -10 -34 -8 -7 -15
-23 -15 -35 0 -31 -28 -54 -41 -34 -5 8 -9 21 -9 29 0 9 -29 -12 -69 -50 -38
-37 -65 -69 -60 -75 4 -6 -4 -10 -22 -11 -22 -1 -29 3 -25 13 3 8 1 11 -4 8
-16 -10 -12 22 5 39 8 8 15 17 15 20 0 14 -19 4 -57 -29 -29 -24 -43 -31 -47
-23 -5 10 -7 10 -12 1 -3 -7 -12 -13 -20 -13 -8 0 -14 -10 -14 -24 0 -14 -4
-28 -10 -31 -5 -3 -10 3 -10 14 0 12 -4 21 -10 21 -5 0 -10 -9 -10 -20 0 -11
-7 -20 -15 -20 -9 0 -12 6 -8 17 5 12 3 14 -8 8 -8 -5 -5 1 5 13 12 14 14 22
7 22 -7 0 -9 4 -6 10 3 5 -14 0 -37 -11 -24 -11 -51 -23 -60 -26 -10 -3 -18
-11 -18 -18 0 -13 -48 -27 -62 -18 -17 10 -7 45 20 70 15 14 20 24 11 21 -19
-7 -22 20 -5 41 8 10 0 9 -24 -4 -70 -36 -118 -75 -124 -101 -6 -24 -10 -26
-45 -20 -25 4 -44 1 -57 -9 -22 -16 -38 -20 -29 -6 6 11 -14 61 -25 61 -4 0
-15 -9 -25 -20 -15 -17 -95 -65 -95 -57 0 2 -27 -23 -60 -55 -51 -50 -63 -57
-79 -48 -34 18 -41 11 -41 -34 0 -39 -3 -46 -30 -59 -23 -12 -31 -12 -39 -3
-6 7 -8 16 -4 19 19 20 -14 3 -48 -25 -34 -27 -39 -37 -39 -72 0 -23 -5 -48
-10 -56 -7 -11 -10 -11 -10 -2 0 7 -4 11 -9 7 -6 -3 -8 4 -6 15 6 29 -26 26
-55 -5 -12 -13 -26 -22 -30 -20 -11 6 -21 -162 -14 -216 4 -30 2 -49 -5 -53
-8 -5 -11 19 -11 83 0 73 -3 91 -14 91 -8 0 -18 -4 -21 -10 -9 -15 -32 -12
-39 6 -3 8 1 28 9 45 14 26 26 34 48 30 4 0 6 23 6 52 -1 28 -3 44 -6 35 -2
-10 -8 -18 -13 -18 -5 0 -14 8 -20 18 -9 16 -11 15 -30 -7 -11 -12 -17 -28
-13 -35 4 -7 2 -8 -5 -1 -19 17 -41 67 -35 81 2 7 19 18 36 25 21 7 26 13 17
16 -9 2 -33 -3 -54 -12 -44 -19 -44 -22 4 -142 16 -39 32 -88 36 -108 l7 -37
-28 28 c-36 36 -47 20 -43 -65 2 -45 -1 -66 -9 -68 -10 -4 -13 13 -13 61 0 35
-4 68 -10 71 -9 6 -14 -14 -11 -42 1 -8 -5 -10 -14 -7 -11 4 -14 2 -9 -9 3 -9
-4 -21 -18 -31 -29 -21 -41 -20 -36 2 4 15 0 17 -24 14 -20 -3 -28 -9 -24 -19
7 -18 -12 -55 -25 -48 -5 4 -9 27 -10 53 0 26 -3 41 -6 34 -7 -18 -42 28 -35
48 3 10 2 12 -6 5 -15 -15 -125 -237 -267 -540 -158 -337 -250 -515 -356 -686
-165 -267 -299 -442 -446 -580 -78 -72 -191 -160 -164 -126 15 19 9 22 -20 7
-37 -20 -18 -2 30 30 55 35 94 73 53 51 -18 -10 -25 -9 -38 3 -16 17 -72 15
-83 -2 -4 -6 -15 -11 -26 -10 -11 0 -24 0 -30 -2 -5 -1 -23 -2 -39 -1 -24 1
-27 3 -16 16 16 19 11 19 -26 1 -16 -8 -60 -18 -99 -21 -66 -6 -69 -5 -50 10
19 16 19 16 -10 9 -16 -3 -63 -17 -103 -30 -40 -13 -74 -24 -77 -24 -3 0 -3
13 -1 30 3 28 3 29 -23 16 -14 -8 -34 -23 -44 -34 -14 -15 -27 -18 -64 -15
-25 2 -51 -1 -58 -7 -6 -5 -35 -9 -64 -9 -35 1 -48 5 -39 11 8 5 -11 7 -51 4
-35 -2 -68 -9 -74 -15 -6 -6 -18 -11 -26 -11 -11 0 -10 4 5 16 18 14 18 15 -6
8 -14 -4 -54 -6 -90 -4 -36 1 -69 2 -75 2 -5 0 -53 -14 -105 -31 -101 -32
-131 -36 -53 -6 27 10 79 33 118 51 65 30 68 33 42 39 -15 4 -27 10 -27 14 0
3 -37 6 -83 5 -45 -1 -99 2 -119 6 -22 5 -41 3 -47 -3 -6 -6 -14 -7 -18 -3 -4
4 -2 11 5 15 8 5 -7 10 -39 14 -29 4 -57 11 -63 17 -14 14 -82 13 -109 -2 -20
-10 -21 -10 -9 5 12 14 9 17 -25 26 -66 17 -292 68 -440 100 l-142 30 -53 -20
c-29 -11 -64 -25 -78 -30 -23 -9 -26 -14 -24 -60 1 -34 -2 -47 -9 -40 -5 5
-10 23 -11 38 -1 37 -26 41 -90 13 -129 -57 -260 -122 -270 -134 -6 -8 -27
-17 -46 -21 l-35 -7 40 28 c47 33 143 80 275 135 52 22 102 43 110 47 8 4 41
17 73 27 31 11 57 22 57 26 0 13 -214 23 -218 10 -2 -6 -10 -11 -17 -11 -7 0
-15 -5 -17 -11 -2 -5 -11 -7 -21 -4 -9 4 -15 11 -12 15 4 7 -15 7 -67 1 -4 -1
-18 -12 -32 -26 -14 -14 -32 -25 -40 -25 -8 0 -19 -7 -24 -16 -7 -12 -17 -14
-58 -6 -56 9 -50 13 -234 -144 -52 -44 -101 -79 -108 -76 -8 2 -12 -2 -10 -13
2 -10 -3 -20 -11 -23 -8 -2 -11 0 -8 5 4 7 -24 11 -77 11 -47 0 -88 2 -93 5
-16 10 -85 -2 -102 -17 -10 -9 -20 -16 -24 -16 -11 0 -202 -114 -292 -175
-112 -76 -164 -105 -237 -135 -32 -13 -58 -30 -58 -37 0 -7 -4 -13 -8 -13 -5
0 -23 -13 -42 -30 -18 -16 -38 -27 -43 -23 -6 4 -8 0 -4 -10 5 -13 1 -17 -16
-18 -20 0 -19 -2 6 -11 15 -5 25 -14 21 -19 -6 -11 -150 -109 -159 -109 -3 0
-34 -19 -70 -43 -47 -32 -61 -47 -55 -57 11 -17 4 -30 -16 -30 -8 0 -14 8 -15
18 0 10 -3 12 -6 4 -3 -9 -18 -11 -53 -6 -40 5 -55 2 -96 -21 -27 -15 -62 -38
-77 -51 -16 -13 -38 -25 -50 -26 -47 -3 -52 -4 -49 -16 1 -7 -9 -12 -24 -12
-14 0 -23 4 -19 10 3 5 2 10 -4 10 -12 0 -42 -41 -36 -50 2 -3 -9 -11 -25 -18
-26 -12 -155 -142 -399 -405 -118 -128 -303 -352 -494 -600 l-137 -177 0 -495
0 -495 840 0 c462 0 839 3 839 8 -3 18 2 32 12 32 6 0 9 -9 6 -20 -4 -16 0
-20 22 -20 19 0 32 8 44 30 10 17 24 30 31 30 7 0 26 19 43 43 25 36 28 46 19
70 -8 23 -6 36 13 72 12 24 30 51 40 62 38 41 81 113 81 136 0 24 35 65 46 54
4 -3 -3 -26 -15 -50 -11 -24 -21 -48 -21 -53 0 -9 54 -34 72 -34 16 0 108 124
108 145 0 33 28 58 55 51 32 -8 95 62 95 104 0 31 30 56 38 32 5 -17 26 0 95
75 36 40 55 68 51 78 -5 11 -2 14 11 9 11 -5 31 7 62 37 25 24 40 35 32 24
-15 -21 -37 -46 -167 -186 -45 -49 -82 -94 -82 -99 0 -5 -12 -15 -26 -23 -14
-7 -44 -36 -67 -64 -23 -28 -77 -92 -119 -141 -43 -50 -78 -95 -78 -100 0 -5
7 -15 16 -23 11 -9 14 -23 10 -48 -4 -20 -7 -45 -8 -55 -3 -30 -42 -62 -97
-81 -48 -16 -91 -56 -91 -84 0 -7 34 -11 100 -11 80 0 100 3 100 14 0 23 22
31 32 11 9 -15 13 -14 41 12 l30 28 -22 -32 -22 -33 686 0 c633 0 688 1 713
17 26 17 26 17 13 0 -13 -16 29 -17 792 -17 l805 0 118 115 c65 63 121 115
125 115 3 0 64 109 134 242 71 134 170 317 220 408 116 208 133 242 128 257
-2 6 3 25 11 42 11 21 12 31 4 33 -14 5 3 167 22 213 7 17 15 39 17 49 2 11 8
25 13 31 5 7 7 15 3 18 -3 4 -1 7 6 7 7 0 35 25 63 55 28 31 67 62 87 71 20 9
44 20 53 25 10 5 26 9 35 9 12 0 32 25 58 72 22 39 44 70 49 69 5 -2 12 3 17
10 6 10 11 10 22 1 14 -12 27 -7 27 12 0 6 -5 4 -11 -4 -9 -13 -10 -13 -6 0 2
8 9 15 15 15 6 0 31 26 56 59 l46 58 0 142 c1 182 13 279 41 314 11 15 27 42
35 61 21 51 95 149 177 237 76 82 143 172 134 181 -3 2 1 20 9 38 7 18 10 35
5 37 -10 3 16 37 41 53 141 90 186 126 191 152 3 15 9 42 13 58 5 25 4 28 -7
18 -29 -28 -29 -11 0 18 17 17 35 28 40 25 5 -3 33 13 63 37 29 23 82 62 118
86 36 24 70 50 75 56 15 18 143 105 155 105 6 0 9 3 9 8 -1 4 -1 20 0 35 1 31
21 28 21 -4 0 -23 3 -23 38 -5 15 8 73 28 130 44 56 17 110 39 119 48 15 15
18 14 33 -6 17 -22 17 -22 80 54 34 43 65 75 68 72 3 -3 -3 -16 -14 -28 l-19
-23 25 20 c13 11 30 26 38 33 7 6 17 12 22 12 5 0 18 10 30 22 27 29 26 10 -2
-69 -12 -34 -20 -65 -16 -68 6 -6 163 51 185 67 6 5 13 4 15 -3 3 -9 9 -9 23
-1 23 12 178 32 248 32 43 0 47 2 47 25 0 20 5 25 23 25 13 0 26 -3 30 -6 9
-10 -4 -34 -19 -34 -8 0 -14 -4 -14 -9 0 -5 44 -12 98 -16 53 -3 137 -13 186
-21 101 -16 146 -18 146 -6 0 4 29 23 64 42 l65 35 -21 36 c-11 20 -18 43 -16
50 3 8 17 -9 32 -39 24 -48 28 -52 49 -42 19 9 20 9 7 -2 -14 -12 -13 -18 11
-61 19 -36 28 -44 32 -33 4 9 15 16 25 16 10 0 24 6 30 12 8 8 15 9 20 3 11
-16 34 -17 44 -3 6 9 10 10 16 2 5 -9 11 -8 20 2 10 11 10 14 -2 14 -7 0 -16
6 -19 13 -4 10 2 13 18 9 26 -5 42 13 19 22 -10 4 -13 2 -8 -7 5 -8 2 -7 -9 2
-9 7 -17 10 -17 5 -1 -5 -7 2 -14 16 -16 27 -12 40 10 40 8 0 12 -4 9 -10 -8
-13 8 -13 22 1 11 11 46 6 266 -32 37 -7 67 -17 67 -23 0 -8 3 -8 8 0 5 9 45
4 147 -17 254 -53 308 -62 327 -50 10 6 26 11 35 11 14 -1 13 -3 -6 -14 -22
-12 -20 -13 35 -24 57 -11 443 -62 470 -62 20 0 21 676 2 683 -10 4 -10 6 0 6
9 1 12 127 12 596 0 327 -4 595 -8 595 -16 0 -32 -25 -32 -51 0 -15 -7 -35
-16 -43 -8 -9 -11 -16 -5 -16 6 0 11 -16 11 -35 0 -21 -5 -35 -12 -35 -10 0
-10 -2 -1 -8 6 -4 13 -23 15 -42 3 -32 1 -35 -27 -40 -35 -6 -42 -28 -25 -71
8 -17 20 -29 31 -29 15 0 19 -7 19 -31 0 -26 2 -29 14 -20 12 10 14 8 12 -15
-2 -16 -13 -32 -27 -40 -13 -7 -18 -13 -11 -14 13 0 16 -28 6 -54 -3 -9 -17
-16 -30 -16 -19 0 -24 5 -24 26 0 21 -3 25 -17 19 -57 -24 -99 -36 -115 -32
-12 3 -18 0 -18 -10 0 -13 -9 -14 -62 -7 -35 5 -97 9 -138 9 -41 0 -80 3 -87
8 -6 4 -40 9 -75 11 -46 3 -62 7 -60 17 1 9 -3 7 -12 -4 -12 -16 -15 -16 -23
-4 -7 14 -41 21 -84 18 -9 -1 -21 -11 -27 -23 -9 -20 -11 -20 -11 -5 -1 10 -7
17 -13 14 -7 -2 -11 -13 -10 -23 3 -13 0 -16 -6 -9 -6 6 -12 19 -14 30 -2 15
4 21 27 26 24 5 26 7 7 8 -13 0 -32 10 -44 21 -12 10 -25 17 -30 14 -5 -4 -4
3 3 14 7 12 9 25 5 29 -5 4 -11 2 -13 -4 -9 -24 -18 -13 -19 23 0 20 -5 39
-11 42 -6 4 -13 31 -17 61 -9 73 -16 101 -27 101 -19 0 -8 36 14 45 12 6 23
19 25 31 2 14 23 29 73 52 72 33 98 38 115 23 5 -5 22 -7 38 -4 l29 6 -24 14
-24 14 24 -7 c13 -3 21 -2 18 3 -3 5 14 19 39 31 50 25 58 27 49 12 -6 -9 35
-16 60 -10 6 1 17 3 25 3 25 0 53 24 40 32 -9 6 -9 10 1 17 9 5 4 6 -14 2 -27
-6 -28 -5 -25 27 2 26 8 35 24 37 16 2 23 -4 29 -25 6 -24 8 -26 16 -10 13 23
87 60 105 53 8 -3 13 -2 10 3 -3 5 48 35 114 68 65 32 122 65 125 75 8 22 53
32 73 16 13 -11 14 -11 7 1 -6 11 -4 13 9 8 9 -4 14 -3 11 2 -3 5 -1 12 5 16
13 8 14 352 0 360 -6 3 -17 -1 -26 -9 -8 -9 -17 -16 -20 -16 -9 0 -3 10 15 27
16 15 18 25 11 53 -5 23 -8 27 -9 13z m-49 -188 c0 -5 -5 -11 -11 -13 -6 -2
-11 4 -11 13 0 9 5 15 11 13 6 -2 11 -8 11 -13z m-2 -55 c0 -5 -4 -10 -10 -10
-5 0 -10 5 -10 10 0 6 5 10 10 10 6 0 10 -4 10 -10z m-177 -91 c6 -23 -19 -51
-42 -47 -16 3 -27 39 -18 62 8 20 54 8 60 -15z m172 -19 c-4 -14 -2 -20 8 -20
8 0 14 7 13 16 0 9 5 19 12 21 17 6 15 -32 -3 -47 -8 -7 -22 -10 -30 -6 -17 6
-21 56 -4 56 6 0 8 -9 4 -20z m-331 -11 c5 -4 -5 -14 -22 -23 -30 -15 -31 -15
-25 1 9 27 25 44 32 36 3 -4 10 -11 15 -14z m-234 -126 c0 -7 -11 -13 -25 -13
-28 0 -34 27 -13 48 10 10 15 9 25 -5 7 -9 13 -23 13 -30z m400 13 c0 -28 -18
-46 -47 -46 -20 0 -23 5 -23 34 0 30 4 35 28 38 36 5 42 1 42 -26z m-228 19
c13 -13 -5 -55 -23 -55 -22 0 -34 22 -25 45 5 14 37 21 48 10z m-854 -117
c-20 -29 -61 -31 -66 -3 l-4 20 16 -20 c15 -20 15 -20 38 3 12 12 24 22 26 22
3 0 -2 -10 -10 -22z m496 7 c-4 -8 -8 -15 -10 -15 -2 0 -4 7 -4 15 0 8 4 15
10 15 5 0 7 -7 4 -15z m-284 -4 c0 -11 -31 -24 -39 -16 -3 3 1 10 9 15 19 12
30 12 30 1z m160 -16 c0 -8 -9 -15 -20 -15 -20 0 -26 11 -13 23 12 13 33 7 33
-8z m-200 -60 c0 -26 -15 -34 -23 -12 -3 6 -6 2 -6 -11 -1 -27 -16 -22 -24 8
-4 15 1 24 16 30 34 13 37 12 37 -15z m380 -19 c0 -15 -7 -26 -20 -29 -12 -3
-18 -1 -14 5 4 6 0 14 -7 19 -20 13 -27 11 -32 -8 -4 -14 -5 -12 -6 5 -1 18 4
22 29 22 17 0 30 5 30 11 0 5 5 7 10 4 6 -3 10 -17 10 -29z m-549 14 c5 -40 2
-69 -6 -67 -5 2 -10 15 -10 28 0 13 -4 24 -10 24 -5 0 -10 -10 -10 -22 1 -13
-4 -23 -11 -23 -16 0 -24 33 -12 54 10 17 57 22 59 6z m724 -15 c0 -25 -9 -33
-19 -16 -7 10 3 41 13 41 3 0 6 -11 6 -25z m-1155 -60 c0 -8 -4 -15 -10 -15
-5 0 -7 7 -4 15 4 8 8 15 10 15 2 0 4 -7 4 -15z m208 -102 c3 -17 -3 -26 -23
-33 -33 -12 -45 -6 -45 24 0 30 9 38 40 34 17 -2 26 -10 28 -25z m175 3 c-6
-29 12 -42 35 -24 15 12 16 11 3 -4 -22 -29 -51 -23 -51 10 0 24 7 42 15 42 1
0 0 -11 -2 -24z m45 -1 c-3 -3 -9 2 -12 12 -6 14 -5 15 5 6 7 -7 10 -15 7 -18z
m175 18 c3 -5 -8 -8 -23 -8 -15 0 -26 3 -23 8 2 4 13 7 23 7 10 0 21 -3 23 -7z
m167 -33 c0 -26 -3 -30 -27 -29 -24 2 -25 2 -5 6 15 3 22 11 22 29 0 13 2 24
5 24 3 0 5 -13 5 -30z m-160 -10 c0 -5 -5 -10 -11 -10 -5 0 -7 5 -4 10 3 6 8
10 11 10 2 0 4 -4 4 -10z m-1500 -45 c0 -2 -10 -9 -22 -15 -22 -11 -22 -10 -4
4 21 17 26 19 26 11z m1043 -40 c-3 -9 -8 -14 -10 -11 -3 3 -2 9 2 15 9 16 15
13 8 -4z m-1123 -14 c0 -5 -9 -11 -19 -14 -14 -3 -18 -1 -14 9 6 15 33 19 33
5z m970 0 c0 -6 -5 -13 -10 -16 -8 -5 -8 -11 -1 -19 8 -10 4 -11 -19 -8 -17 2
-30 9 -30 14 0 5 4 7 9 3 5 -3 12 -1 16 5 3 5 -2 10 -12 11 -13 1 -11 3 7 9
35 11 40 11 40 1z m602 -41 c3 -38 2 -40 -24 -40 -31 0 -35 14 -16 55 17 37
35 31 40 -15z m178 -11 c0 -36 -42 -53 -68 -27 -20 20 -15 58 8 58 11 0 20 5
20 12 0 6 9 1 20 -12 11 -13 20 -27 20 -31z m-350 21 c0 -11 -4 -20 -9 -20 -5
0 -7 9 -4 20 3 11 7 20 9 20 2 0 4 -9 4 -20z m-625 -140 c-9 -14 -45 -19 -45
-6 0 7 3 15 6 18 8 8 45 -3 39 -12z m104 -25 c-17 -25 -25 -30 -27 -19 -4 16
37 68 46 59 3 -2 -6 -20 -19 -40z m-1106 20 c4 -8 2 -17 -2 -20 -5 -3 -12 2
-15 11 -3 8 -10 12 -16 9 -5 -3 -10 -1 -10 4 0 17 37 13 43 -4z m1583 -1 c-4
-9 -1 -23 5 -30 9 -11 9 -14 0 -14 -6 0 -14 7 -17 15 -7 16 1 45 12 45 3 0 3
-7 0 -16z m185 -26 c-3 -21 -6 -26 -9 -15 -3 17 3 47 11 47 2 0 1 -15 -2 -32z
m199 -17 c0 -31 -14 -49 -25 -32 -3 6 -12 8 -20 4 -11 -4 -15 3 -15 26 0 28 3
31 30 31 27 0 30 -3 30 -29z m-340 9 c0 -5 -5 -10 -11 -10 -5 0 -7 5 -4 10 3
6 8 10 11 10 2 0 4 -4 4 -10z m-604 -107 c-8 -16 -22 -37 -31 -48 -15 -19 -15
-18 0 13 8 17 12 32 8 32 -6 0 28 29 35 30 1 0 -4 -12 -12 -27z m557 -8 c-3
-9 -8 -14 -10 -11 -3 3 -2 9 2 15 9 16 15 13 8 -4z m217 -2 c0 -13 -3 -14 -11
-6 -6 6 -18 9 -27 6 -10 -4 -13 -2 -8 5 11 18 46 14 46 -5z m167 2 c8 -22 -4
-30 -22 -15 -12 10 -15 10 -15 -1 0 -9 -3 -10 -11 -2 -6 6 -8 16 -5 22 10 16
46 13 53 -4z m-2112 -5 c3 -6 -1 -7 -9 -4 -18 7 -21 14 -7 14 6 0 13 -4 16
-10z m965 -34 c0 -7 -9 -16 -20 -19 -24 -6 -25 -3 -4 17 19 20 24 20 24 2z
m-180 -122 c0 -8 -4 -12 -10 -9 -5 3 -19 1 -30 -5 -11 -6 -20 -8 -20 -6 0 4
48 34 58 36 1 0 2 -7 2 -16z m1840 -13 c0 -5 -9 -11 -20 -14 -20 -5 -26 3 -13
16 9 10 33 8 33 -2z m-1589 -28 c-5 -10 -17 -27 -26 -38 -16 -19 -17 -19 -3 5
26 46 29 50 34 50 3 0 0 -8 -5 -17z m1582 -10 c-7 -2 -19 -2 -25 0 -7 3 -2 5
12 5 14 0 19 -2 13 -5z m-3103 -33 c0 -5 -4 -10 -10 -10 -5 0 -10 5 -10 10 0
6 5 10 10 10 6 0 10 -4 10 -10z m1470 -40 c-6 -11 -13 -20 -16 -20 -2 0 0 9 6
20 6 11 13 20 16 20 2 0 0 -9 -6 -20z m-420 -5 c-7 -8 -16 -15 -21 -15 -5 0
-9 7 -9 15 0 9 9 15 21 15 18 0 19 -2 9 -15z m-1050 -34 c0 -43 -11 -91 -21
-91 -5 0 -9 27 -9 60 0 47 3 60 15 60 10 0 15 -10 15 -29z m1437 -21 c-12 -31
-41 -53 -30 -22 6 16 33 52 39 52 1 0 -3 -13 -9 -30z m-1257 -11 c0 -10 -4
-19 -10 -19 -5 0 -10 12 -10 26 0 14 4 23 10 19 6 -3 10 -15 10 -26z m170 19
c0 -7 -5 -20 -10 -28 -8 -12 -10 -9 -10 13 0 15 5 27 10 27 6 0 10 -6 10 -12z
m-53 -30 c-3 -7 -5 -2 -5 12 0 14 2 19 5 13 2 -7 2 -19 0 -25z m503 -48 c0 -5
-5 -10 -11 -10 -5 0 -7 5 -4 10 3 6 8 10 11 10 2 0 4 -4 4 -10z m15 -35 c-16
-13 -34 -24 -40 -24 -5 0 4 11 20 24 17 14 35 25 40 25 6 0 -3 -11 -20 -25z
m526 -42 c-5 -10 -17 -27 -26 -38 -16 -19 -17 -19 -3 5 26 46 29 50 34 50 3 0
0 -8 -5 -17z m-991 -17 c0 -14 -4 -28 -10 -31 -6 -4 -10 7 -10 24 0 17 5 31
10 31 6 0 10 -11 10 -24z m-383 -8 c-3 -8 -6 -5 -6 6 -1 11 2 17 5 13 3 -3 4
-12 1 -19z m668 3 c0 -9 -11 -15 -27 -15 -27 -2 -36 12 -21 28 12 12 48 2 48
-13z m-320 -11 c3 -5 -1 -10 -10 -10 -9 0 -13 5 -10 10 3 6 8 10 10 10 2 0 7
-4 10 -10z m335 -35 c8 5 8 1 -1 -13 -14 -22 -49 -37 -49 -21 0 5 5 9 10 9 6
0 10 10 10 23 0 16 3 18 9 8 5 -7 14 -10 21 -6z m-290 -44 c0 -14 33 -56 44
-56 1 0 20 17 41 37 42 40 53 42 35 8 -13 -25 -7 -50 12 -50 9 0 8 3 -2 10 -9
6 -10 10 -3 10 28 0 23 -25 -11 -56 -20 -18 -36 -37 -36 -42 0 -5 -11 -19 -25
-32 -14 -13 -30 -41 -35 -62 -11 -41 -25 -49 -34 -20 -3 10 -4 8 -3 -7 1 -13
-4 -26 -10 -28 -8 -3 -13 5 -13 23 0 27 0 27 -22 8 -19 -17 -21 -17 -15 -1 6
16 4 16 -22 2 -16 -8 -43 -31 -59 -51 -36 -43 -46 -33 -37 36 8 56 22 66 27
19 l3 -31 48 37 c47 36 47 36 47 95 0 41 6 72 20 97 11 21 20 45 20 54 0 8 3
19 6 22 11 10 24 -2 24 -22z m904 -6 c-9 -14 -18 -25 -21 -25 -5 0 5 18 20 38
17 22 18 13 1 -13z m-724 -40 c-7 -9 -15 -13 -19 -10 -3 3 1 10 9 15 21 14 24
12 10 -5z m-369 -46 c-8 -21 -10 -22 -16 -6 -10 23 2 54 16 40 6 -6 6 -18 0
-34z m1059 26 c0 -8 -4 -15 -10 -15 -5 0 -10 7 -10 15 0 8 5 15 10 15 6 0 10
-7 10 -15z m-1210 -15 c0 -12 -7 -20 -17 -20 -15 0 -16 2 -3 10 13 9 13 11 0
20 -13 8 -12 10 3 10 10 0 17 -8 17 -20z m3532 -40 c-2 -16 -7 -30 -11 -31 -3
0 -14 -2 -23 -4 -10 -2 -21 2 -25 8 -12 20 -10 47 3 47 7 0 10 -8 7 -20 -4
-16 0 -20 17 -20 18 0 21 4 18 25 -3 15 -1 25 7 25 7 0 10 -11 7 -30z m-222
-20 c0 -15 -7 -20 -25 -20 -17 0 -25 5 -24 18 0 10 3 12 6 5 7 -18 33 -16 33
2 0 8 2 15 5 15 3 0 5 -9 5 -20z m-227 -17 c-7 -2 -21 -2 -30 0 -10 3 -4 5 12
5 17 0 24 -2 18 -5z m-2021 -105 c-7 -7 -12 -8 -12 -2 0 14 12 26 19 19 2 -3
-1 -11 -7 -17z m-821 -51 c-5 -14 -14 -28 -19 -31 -13 -8 -1 47 12 56 16 10
18 4 7 -25z m800 16 c-15 -29 -40 -59 -41 -50 0 10 39 67 46 67 3 0 0 -8 -5
-17z m2269 7 c0 -5 -5 -10 -11 -10 -5 0 -7 5 -4 10 3 6 8 10 11 10 2 0 4 -4 4
-10z m-1499 -13 c-1 -12 -15 -9 -19 4 -3 6 1 10 8 8 6 -3 11 -8 11 -12z
m-1461 -26 c0 -39 -36 -51 -43 -14 -4 22 7 34 41 42 1 1 2 -12 2 -28z m116 4
c-3 -9 -11 -13 -16 -10 -8 5 -7 11 1 21 14 18 24 11 15 -11z m1554 5 c0 -11
-2 -20 -4 -20 -2 0 -6 9 -9 20 -3 11 -1 20 4 20 5 0 9 -9 9 -20z m220 10 c0
-5 -2 -10 -4 -10 -3 0 -8 5 -11 10 -3 6 -1 10 4 10 6 0 11 -4 11 -10z m1244
-35 c3 -8 1 -15 -4 -15 -6 0 -10 7 -10 15 0 8 2 15 4 15 2 0 6 -7 10 -15z m48
-7 c-7 -7 -12 -8 -12 -2 0 14 12 26 19 19 2 -3 -1 -11 -7 -17z m-3554 -93 c-6
-14 -15 -22 -20 -17 -12 12 1 42 18 42 11 0 11 -5 2 -25z m192 0 c0 -2 -5 -16
-12 -30 -16 -35 -29 -31 -17 5 6 17 15 30 20 30 5 0 9 -2 9 -5z m155 -35 c0
-22 -3 -40 -7 -40 -5 0 -8 18 -8 40 0 22 3 40 8 40 4 0 7 -18 7 -40z m125 5
c-7 -9 -15 -13 -17 -11 -7 7 7 26 19 26 6 0 6 -6 -2 -15z m2648 -7 c-2 -17
-10 -23 -28 -23 -15 0 -25 6 -26 15 0 9 1 10 3 3 7 -21 33 -15 33 7 0 11 5 20
11 20 6 0 9 -10 7 -22z m433 -29 c-26 -22 -52 -22 -59 0 -3 9 1 11 16 7 11 -4
23 -2 27 4 3 5 14 10 23 10 14 -1 12 -5 -7 -21z m-3451 7 c0 -3 -4 -8 -10 -11
-5 -3 -10 -1 -10 4 0 6 5 11 10 11 6 0 10 -2 10 -4z m3230 -6 c0 -5 -4 -10
-10 -10 -5 0 -10 5 -10 10 0 6 5 10 10 10 6 0 10 -4 10 -10z m-2438 -22 c-7
-7 -12 -8 -12 -2 0 14 12 26 19 19 2 -3 -1 -11 -7 -17z m708 2 c0 -5 7 -10 15
-10 8 0 15 6 15 13 0 8 3 7 9 -3 6 -8 7 -18 5 -22 -10 -15 -43 -8 -54 12 -7
14 -7 20 0 20 5 0 10 -4 10 -10z m1845 -12 c-16 -6 -60 -23 -97 -39 -36 -16
-71 -29 -77 -29 -19 0 -12 30 7 31 9 0 46 11 82 24 36 12 76 23 90 23 23 0 23
0 -5 -10z m-2195 -18 c0 -5 -4 -10 -9 -10 -6 0 -13 5 -16 10 -3 6 1 10 9 10 9
0 16 -4 16 -10z m1678 -22 c-6 -18 -28 -21 -28 -4 0 9 7 16 16 16 9 0 14 -5
12 -12z m306 -10 c17 -9 17 -12 4 -19 -10 -6 -26 -3 -44 6 -35 18 -55 19 -90
3 -22 -10 -28 -10 -32 0 -2 7 -25 13 -60 14 l-57 1 60 7 c78 8 194 2 219 -12z
m275 1 c16 -20 18 -20 34 -4 15 15 17 15 17 0 0 -20 -23 -29 -55 -21 -16 4
-25 13 -25 26 0 26 8 25 29 -1z m-2469 -19 c0 -5 -2 -10 -4 -10 -3 0 -8 5 -11
10 -3 6 -1 10 4 10 6 0 11 -4 11 -10z m-730 -21 c0 -5 -4 -9 -10 -9 -5 0 -10
7 -10 16 0 8 5 12 10 9 6 -3 10 -10 10 -16z m27 -21 c-3 -7 -5 -2 -5 12 0 14
2 19 5 13 2 -7 2 -19 0 -25z m720 6 c-3 -3 -12 -4 -19 -1 -8 3 -5 6 6 6 11 1
17 -2 13 -5z m618 -4 c-3 -5 -10 -10 -16 -10 -5 0 -9 5 -9 10 0 6 7 10 16 10
8 0 12 -4 9 -10z m-1191 -31 c9 -46 7 -87 -4 -94 -6 -4 -10 13 -10 44 0 27 -3
56 -6 65 -3 9 -2 16 4 16 5 0 12 -14 16 -31z m-524 7 c0 -2 -7 -7 -16 -10 -8
-3 -12 -2 -9 4 6 10 25 14 25 6z m50 -72 c0 -8 -4 -14 -10 -14 -5 0 -10 9 -10
21 0 11 5 17 10 14 6 -3 10 -13 10 -21z m-62 -56 c-8 -12 -21 -24 -29 -26 -8
-3 -3 7 10 22 30 32 39 34 19 4z m218 -99 c-31 -36 -248 -243 -226 -215 25 32
239 246 245 246 4 0 -5 -14 -19 -31z m-461 -260 c10 -15 -1 -23 -20 -15 -9 3
-13 10 -10 16 8 13 22 13 30 -1z m-18 -121 c-3 -8 -6 -5 -6 6 -1 11 2 17 5 13
3 -3 4 -12 1 -19z m-2467 -27 c0 -10 -24 -21 -46 -21 -8 0 -14 4 -14 9 0 8 10
12 53 20 4 0 7 -3 7 -8z m925 -31 c3 -5 -1 -10 -10 -10 -9 0 -13 5 -10 10 3 6
8 10 10 10 2 0 7 -4 10 -10z m-2115 -19 c0 -6 -4 -13 -10 -16 -5 -3 -10 1 -10
9 0 9 5 16 10 16 6 0 10 -4 10 -9z m3490 -45 c-26 -27 -37 -13 -13 17 12 17
20 21 25 13 4 -6 -1 -20 -12 -30z m-3750 19 c0 -6 -56 -35 -67 -35 -4 0 6 9
22 20 29 19 45 25 45 15z m-90 -81 c0 -23 -4 -33 -11 -28 -6 3 -8 17 -4 32 l6
25 -28 -17 c-15 -10 -40 -31 -54 -47 -21 -24 -28 -27 -37 -16 -9 10 2 21 51
50 34 20 65 37 70 37 4 0 7 -16 7 -36z m1505 -34 c-3 -5 -11 -10 -16 -10 -6 0
-7 5 -4 10 3 6 11 10 16 10 6 0 7 -4 4 -10z m-40 -20 c-3 -5 -13 -10 -21 -10
-8 0 -12 5 -9 10 3 6 13 10 21 10 8 0 12 -4 9 -10z m-1710 -55 c-16 -14 -34
-25 -39 -25 -6 0 5 11 24 25 43 32 54 32 15 0z m1520 -15 c-3 -5 -11 -10 -16
-10 -6 0 -7 5 -4 10 3 6 11 10 16 10 6 0 7 -4 4 -10z m-62 -26 c-20 -15 -43
-18 -43 -6 0 13 7 17 35 18 24 2 25 1 8 -12z m-1723 -119 c0 -14 -4 -25 -10
-25 -11 0 -14 33 -3 43 11 11 13 8 13 -18z m70 -10 c0 -8 -4 -15 -10 -15 -5 0
-10 7 -10 15 0 8 5 15 10 15 6 0 10 -7 10 -15z m-600 -39 c0 -3 -4 -8 -10 -11
-5 -3 -10 -1 -10 4 0 6 5 11 10 11 6 0 10 -2 10 -4z m1840 -20 c0 -7 -71 -46
-83 -46 -7 1 8 12 33 25 50 27 50 27 50 21z m-1410 -44 c0 -5 -21 -24 -47 -42
l-48 -33 40 41 c38 41 55 51 55 34z m-180 -52 c0 -20 -5 -30 -15 -30 -15 0
-21 40 -8 53 14 15 23 6 23 -23z m308 3 c-4 -34 -28 -43 -28 -10 0 25 7 37 22
37 5 0 8 -12 6 -27z m192 -13 c0 -11 -7 -20 -15 -20 -8 0 -15 9 -15 20 0 11 7
20 15 20 8 0 15 -9 15 -20z m-773 -16 c-9 -9 -28 6 -21 18 4 6 10 6 17 -1 6
-6 8 -13 4 -17z m1598 -24 c-3 -5 -16 -15 -28 -21 -19 -9 -19 -8 3 10 28 23
34 26 25 11z m2835 -20 c0 -5 -5 -10 -11 -10 -5 0 -7 5 -4 10 3 6 8 10 11 10
2 0 4 -4 4 -10z m234 -16 c8 -20 -24 -63 -46 -64 -12 0 -18 8 -18 24 0 43 51
75 64 40z m-3324 -34 c0 -5 -4 -10 -10 -10 -5 0 -10 5 -10 10 0 6 5 10 10 10
6 0 10 -4 10 -10z m-1488 -81 c-3 -29 -26 -54 -41 -45 -13 8 -3 57 13 68 18
13 31 2 28 -23z m297 12 c8 -14 5 -23 -14 -41 l-25 -23 0 35 c0 50 20 65 39
29z m-521 -94 c2 -10 -4 -20 -13 -23 -21 -8 -25 -3 -18 24 6 25 26 24 31 -1z
m259 5 c8 -5 7 -14 -6 -31 l-18 -23 -1 31 c-1 32 4 36 25 23z m3883 -12 c0 -5
-4 -10 -10 -10 -5 0 -10 5 -10 10 0 6 5 10 10 10 6 0 10 -4 10 -10z m-3755
-60 c3 -5 -10 -26 -29 -47 l-35 -38 -1 34 c0 24 4 32 14 28 8 -3 16 2 19 14 5
20 22 25 32 9z m-385 -75 c0 -14 -4 -25 -10 -25 -5 0 -10 11 -10 25 0 14 5 25
10 25 6 0 10 -11 10 -25z m998 -20 c-3 -3 -9 2 -12 12 -6 14 -5 15 5 6 7 -7
10 -15 7 -18z m382 11 c0 -2 -8 -10 -17 -17 -16 -13 -17 -12 -4 4 13 16 21 21
21 13z m2710 -41 c0 -8 -4 -15 -10 -15 -5 0 -10 7 -10 15 0 8 5 15 10 15 6 0
10 -7 10 -15z m-2730 -145 c0 -11 -2 -20 -4 -20 -2 0 -6 9 -9 20 -3 11 -1 20
4 20 5 0 9 -9 9 -20z m400 12 c0 -5 -11 -19 -25 -32 l-25 -23 0 25 c0 15 6 29
13 31 19 8 37 8 37 -1z m240 -7 c0 -8 -4 -15 -10 -15 -5 0 -10 7 -10 15 0 8 5
15 10 15 6 0 10 -7 10 -15z m260 -30 c0 -8 -4 -17 -10 -20 -6 -4 -10 5 -10 20
0 15 4 24 10 20 6 -3 10 -12 10 -20z m-706 -7 c9 -35 8 -38 -15 -38 -15 0 -19
4 -15 16 3 9 6 22 6 30 0 22 17 16 24 -8z m300 -13 c-4 -8 -12 -15 -20 -15 -8
0 -14 7 -14 15 0 8 9 15 20 15 13 0 18 -5 14 -15z m1386 -40 c0 -8 -4 -15 -10
-15 -5 0 -10 7 -10 15 0 8 5 15 10 15 6 0 10 -7 10 -15z m-1645 -5 c-3 -5 -15
-10 -26 -10 -11 0 -17 5 -14 10 3 6 15 10 26 10 11 0 17 -4 14 -10z m1405 6
c0 -3 -4 -8 -10 -11 -5 -3 -10 -1 -10 4 0 6 5 11 10 11 6 0 10 -2 10 -4z
m-1515 -151 c0 -10 -6 -20 -12 -22 -8 -3 -13 5 -13 22 0 17 5 25 13 23 6 -3
12 -13 12 -23z m175 -5 c0 -11 -7 -20 -15 -20 -8 0 -15 9 -15 20 0 11 7 20 15
20 8 0 15 -9 15 -20z m153 0 c-3 -11 -7 -20 -9 -20 -2 0 -4 9 -4 20 0 11 4 20
9 20 5 0 7 -9 4 -20z m154 -12 c-3 -7 -5 -2 -5 12 0 14 2 19 5 13 2 -7 2 -19
0 -25z m-577 1 c0 -5 -7 -9 -15 -9 -9 0 -12 6 -9 15 6 15 24 11 24 -6z m2020
6 c0 -8 -4 -15 -10 -15 -5 0 -10 7 -10 15 0 8 5 15 10 15 6 0 10 -7 10 -15z
m-2106 -167 c-3 -4 -12 -8 -20 -8 -12 0 -13 4 -3 21 9 17 13 19 19 8 5 -7 6
-17 4 -21z m233 -5 c-3 -2 -13 -3 -23 -1 -16 3 -16 4 2 22 18 18 19 18 22 2 2
-10 1 -20 -1 -23z m248 -33 c-10 -11 -23 -20 -28 -20 -6 0 -2 9 8 20 10 11 23
20 28 20 6 0 2 -9 -8 -20z m-105 -80 c0 -5 -4 -12 -10 -15 -5 -3 -10 -4 -10
-1 0 2 -3 12 -6 20 -5 12 -2 15 10 10 9 -3 16 -10 16 -14z m-470 6 c0 -3 -4
-8 -10 -11 -5 -3 -10 -1 -10 4 0 6 5 11 10 11 6 0 10 -2 10 -4z m260 -196
c-11 -20 -30 -28 -30 -12 0 11 22 32 32 32 5 0 4 -9 -2 -20z m1840 -9 c0 -18
-18 -21 -30 -6 -10 13 -9 15 9 15 11 0 21 -4 21 -9z m-2951 -48 c-24 -27 -62
-72 -84 -100 -34 -46 -55 -64 -55 -48 0 7 171 195 177 195 3 0 -14 -21 -38
-47z m695 18 c3 -5 0 -14 -8 -20 -10 -9 -15 -8 -19 3 -9 22 15 37 27 17z m254
-89 c7 7 12 10 12 7 0 -3 -21 -25 -47 -49 -26 -25 -37 -33 -24 -18 13 14 20
32 16 38 -4 6 -4 19 0 28 6 16 7 16 19 0 10 -13 15 -15 24 -6z m-418 -52 c-6
-11 -15 -20 -21 -20 -6 0 -6 7 1 20 6 11 15 20 21 20 6 0 6 -7 -1 -20z m-320
-20 c0 -5 -4 -10 -10 -10 -5 0 -10 5 -10 10 0 6 5 10 10 10 6 0 10 -4 10 -10z
m110 -9 c-5 -11 -15 -23 -20 -26 -14 -9 -12 19 2 33 19 19 30 14 18 -7z m266
-26 c-7 -18 -26 -20 -26 -2 0 18 24 41 28 27 2 -6 1 -17 -2 -25z m204 21 c0
-2 -9 -6 -20 -9 -11 -3 -20 -1 -20 4 0 5 9 9 20 9 11 0 20 -2 20 -4z m36 -46
c-14 -17 -26 -36 -26 -41 0 -5 -7 -9 -15 -9 -23 0 -18 11 22 52 43 44 57 43
19 -2z m1900 29 c3 -6 0 -17 -7 -25 -12 -11 -14 -9 -15 11 -2 26 10 33 22 14z
m-2997 -144 c-39 -47 -74 -85 -77 -85 -3 0 3 10 14 23 11 12 44 50 73 85 29
34 55 62 57 62 3 0 -27 -38 -67 -85z m405 63 c-5 -7 -9 -36 -9 -65 0 -48 1
-51 18 -36 9 9 20 13 25 9 4 -4 -3 -16 -16 -26 -12 -10 -22 -22 -21 -27 4 -14
-13 -43 -22 -38 -4 3 -6 -4 -4 -15 2 -11 -1 -20 -6 -20 -6 0 -7 -5 -4 -10 10
-16 -55 -92 -74 -88 -17 4 -53 -40 -65 -78 -7 -23 -43 -60 -50 -53 -3 3 8 24
25 48 33 50 35 61 14 61 -8 0 -14 3 -14 8 1 4 1 14 -1 22 -1 11 -4 10 -9 -4
-4 -11 -10 -15 -13 -10 -8 12 85 237 100 242 6 2 12 -3 12 -12 0 -35 35 -6 85
72 15 23 30 40 32 38 3 -3 1 -11 -3 -18z m266 -93 c-7 -9 -15 -13 -17 -11 -7
7 7 26 19 26 6 0 6 -6 -2 -15z m2139 -19 c9 -10 8 -16 -4 -26 -13 -11 -14 -10
-9 5 5 13 4 16 -4 11 -13 -8 -17 6 -5 17 9 9 9 9 22 -7z m-2204 -66 c-10 -11
-20 -18 -23 -15 -3 3 3 14 13 25 10 11 20 18 23 15 3 -3 -3 -14 -13 -25z
m-685 16 c0 -2 -8 -10 -17 -17 -16 -13 -17 -12 -4 4 13 16 21 21 21 13z m495
-55 c-3 -6 -11 -11 -17 -11 -6 0 -6 6 2 15 14 17 26 13 15 -4z m1282 -18 c-3
-3 -11 -2 -17 2 -9 6 -9 10 1 16 14 8 27 -7 16 -18z m1799 0 c-10 -10 -19 5
-10 18 6 11 8 11 12 0 2 -7 1 -15 -2 -18z m-2997 -49 c-35 -51 -49 -53 -23 -2
23 45 35 59 45 52 5 -3 -5 -26 -22 -50z m481 26 c0 -5 -5 -10 -11 -10 -5 0 -7
5 -4 10 3 6 8 10 11 10 2 0 4 -4 4 -10z m1002 -15 c-2 -11 -7 -22 -12 -25 -4
-3 -10 -12 -13 -20 -3 -8 -6 4 -6 28 -1 36 2 43 17 40 11 -2 16 -11 14 -23z
m1448 21 c0 -2 -12 -11 -27 -20 l-28 -17 24 20 c23 21 31 25 31 17z m-3590
-10 c0 -2 -8 -10 -17 -17 -16 -13 -17 -12 -4 4 13 16 21 21 21 13z m706 -63
c-11 -11 -17 4 -9 23 7 18 8 18 11 1 2 -10 1 -21 -2 -24z m-743 15 c-6 -7 -34
-43 -62 -80 -29 -38 -55 -68 -58 -68 -2 0 24 36 58 80 34 44 64 80 66 80 3 0
1 -6 -4 -12z m602 -28 c8 -13 -5 -13 -25 0 -13 8 -13 10 2 10 9 0 20 -4 23
-10z m1849 -47 c-9 -21 -22 -45 -30 -53 -24 -24 -18 33 7 64 29 37 40 32 23
-11z m-1744 14 c0 -22 -26 -51 -38 -43 -9 5 -7 14 5 31 20 27 33 32 33 12z
m-30 -61 c0 -11 -19 -15 -25 -6 -3 5 1 10 9 10 9 0 16 -2 16 -4z m343 -64 c-3
-12 -9 -22 -14 -22 -12 0 -11 7 2 32 13 25 20 19 12 -10z m-525 -5 c2 -10 -3
-17 -12 -17 -10 0 -16 9 -16 21 0 24 23 21 28 -4z m342 3 c-10 -19 -40 -28
-40 -12 0 13 23 32 37 32 11 0 11 -5 3 -20z m-518 -22 c-15 -15 -26 -4 -18 18
5 13 9 15 18 6 9 -9 9 -15 0 -24z m38 28 c0 -3 -4 -8 -10 -11 -5 -3 -10 -1
-10 4 0 6 5 11 10 11 6 0 10 -2 10 -4z m580 -6 c0 -5 -4 -10 -10 -10 -5 0 -10
5 -10 10 0 6 5 10 10 10 6 0 10 -4 10 -10z m-530 -125 c0 -8 -4 -15 -10 -15
-5 0 -10 7 -10 15 0 8 5 15 10 15 6 0 10 -7 10 -15z m410 -11 c0 -16 -23 -44
-36 -44 -5 0 -3 5 4 12 7 7 12 20 12 30 0 10 5 18 10 18 6 0 10 -7 10 -16z
m90 -35 c-9 -15 -15 -18 -23 -10 -7 7 -5 16 8 32 22 24 32 10 15 -22z m-670 0
c-7 -11 -14 -18 -17 -15 -8 8 5 36 17 36 7 0 7 -6 0 -21z m160 11 c0 -5 -4
-10 -10 -10 -5 0 -10 5 -10 10 0 6 5 10 10 10 6 0 10 -4 10 -10z m536 -16 c-4
-9 -9 -15 -11 -12 -3 3 -3 13 1 22 4 9 9 15 11 12 3 -3 3 -13 -1 -22z m1374
-46 c0 -4 -7 -8 -16 -8 -18 0 -46 25 -38 33 8 7 54 -14 54 -25z m-2646 -40
c-20 -29 -46 -62 -57 -73 -21 -21 -3 7 57 88 43 56 43 44 0 -15z m706 48 c0
-3 -4 -8 -10 -11 -5 -3 -10 -1 -10 4 0 6 5 11 10 11 6 0 10 -2 10 -4z m-38
-76 c-18 -31 -32 -39 -32 -17 0 19 30 58 40 52 5 -3 1 -19 -8 -35z m485 -37
c-9 -9 -23 -13 -32 -9 -21 8 -14 32 8 28 8 -1 19 3 23 10 6 9 9 9 12 -1 2 -7
-3 -20 -11 -28z m-630 -85 c-3 -8 -6 -5 -6 6 -1 11 2 17 5 13 3 -3 4 -12 1
-19z"/>
<path d="M10555 6030 c-3 -5 -1 -10 5 -10 6 0 8 -5 4 -12 -4 -7 -3 -8 4 -4 6
4 9 13 5 21 -6 18 -10 19 -18 5z"/>
<path d="M9246 5534 c-9 -23 -8 -24 14 -24 13 0 20 7 20 20 0 24 -25 27 -34 4z"/>
<path d="M9655 5361 c-6 -11 9 -23 19 -14 9 9 7 23 -3 23 -6 0 -12 -4 -16 -9z"/>
<path d="M9820 5196 c0 -9 5 -16 10 -16 6 0 10 4 10 9 0 6 -4 13 -10 16 -5 3
-10 -1 -10 -9z"/>
<path d="M10780 6360 c-9 -6 -10 -10 -3 -10 6 0 15 5 18 10 8 12 4 12 -15 0z"/>
<path d="M10350 6200 c-9 -6 -10 -10 -3 -10 6 0 15 5 18 10 8 12 4 12 -15 0z"/>
<path d="M10545 6200 c-11 -5 -14 -9 -7 -9 6 -1 12 -13 12 -27 0 -21 3 -24 14
-15 18 15 27 61 12 60 -6 0 -20 -4 -31 -9z"/>
<path d="M10510 6152 c0 -10 -6 -24 -12 -31 -11 -10 -10 -11 5 -6 9 4 17 11
17 15 0 5 3 15 6 24 3 9 1 16 -5 16 -6 0 -11 -8 -11 -18z"/>
<path d="M10470 6140 c0 -5 5 -10 11 -10 5 0 7 5 4 10 -3 6 -8 10 -11 10 -2 0
-4 -4 -4 -10z"/>
<path d="M9872 6000 c0 -19 2 -27 5 -17 2 9 2 25 0 35 -3 9 -5 1 -5 -18z"/>
<path d="M9673 5933 c-16 -6 -17 -33 -3 -33 11 0 26 28 19 34 -2 2 -10 1 -16
-1z"/>
<path d="M9831 5894 c0 -11 3 -14 6 -6 3 7 2 16 -1 19 -3 4 -6 -2 -5 -13z"/>
<path d="M9340 5850 c-25 -24 -30 -37 -30 -75 0 -25 -4 -45 -10 -45 -5 0 -10
-5 -10 -11 0 -19 26 8 73 75 62 88 62 86 33 86 -15 0 -38 -13 -56 -30z"/>
<path d="M10810 5866 c0 -8 -5 -17 -10 -19 -6 -3 -5 -4 2 -3 20 4 38 -20 39
-51 0 -15 4 -37 9 -48 7 -14 9 1 7 48 -1 46 -5 67 -14 67 -7 0 -13 5 -13 10 0
6 -4 10 -10 10 -5 0 -10 -6 -10 -14z"/>
<path d="M10751 5784 c0 -11 3 -14 6 -6 3 7 2 16 -1 19 -3 4 -6 -2 -5 -13z"/>
<path d="M10724 5725 c-9 -21 5 -67 17 -60 5 4 9 12 8 18 -4 30 2 46 19 50 10
3 6 5 -11 6 -16 1 -30 -5 -33 -14z"/>
<path d="M10517 5723 c-4 -3 -7 -18 -6 -32 1 -26 1 -25 10 3 9 31 7 41 -4 29z"/>
<path d="M10809 5690 c-3 -29 -9 -36 -34 -41 -29 -6 -29 -7 -4 -8 34 -1 51 20
47 56 -4 26 -4 26 -9 -7z"/>
<path d="M9052 5680 c0 -14 2 -19 5 -12 2 6 2 18 0 25 -3 6 -5 1 -5 -13z"/>
<path d="M10601 5684 c0 -11 3 -14 6 -6 3 7 2 16 -1 19 -3 4 -6 -2 -5 -13z"/>
<path d="M8768 5593 c6 -2 18 -2 25 0 6 3 1 5 -13 5 -14 0 -19 -2 -12 -5z"/>
<path d="M10607 5573 c-4 -3 -7 -20 -6 -37 l1 -31 8 35 c9 36 8 45 -3 33z"/>
<path d="M10512 5530 c0 -19 2 -27 5 -17 2 9 2 25 0 35 -3 9 -5 1 -5 -18z"/>
<path d="M8497 5531 c-4 -17 -3 -21 5 -13 5 5 8 16 6 23 -3 8 -7 3 -11 -10z"/>
<path d="M7383 5385 c-10 -17 5 -96 21 -112 7 -7 -2 117 -9 125 -2 2 -7 -4
-12 -13z"/>
<path d="M10734 5376 c-3 -8 -4 -23 -2 -33 3 -11 6 -6 9 15 6 34 2 42 -7 18z"/>
<path d="M10711 5354 c0 -11 3 -14 6 -6 3 7 2 16 -1 19 -3 4 -6 -2 -5 -13z"/>
<path d="M9230 3852 c-8 -4 -37 -20 -65 -37 l-50 -30 79 -14 c63 -11 80 -11
86 -1 13 21 -1 42 -22 36 -17 -4 -19 -1 -16 25 3 16 4 29 4 28 -1 0 -8 -3 -16
-7z"/>
<path d="M9525 3820 c12 -5 14 -9 6 -9 -8 -1 -11 -4 -8 -7 3 -4 2 -16 -4 -27
-8 -14 -8 -18 0 -13 6 4 11 2 11 -3 0 -6 -4 -11 -10 -11 -16 0 -12 -14 10 -38
12 -12 30 -22 40 -22 29 0 26 38 -4 50 -28 10 -37 28 -24 53 11 21 2 37 -20
36 -14 0 -13 -2 3 -9z"/>
<path d="M8013 3752 c-18 -23 -33 -43 -33 -46 0 -3 11 -6 25 -6 27 0 49 36 43
73 -2 16 -9 12 -35 -21z"/>
<path d="M3328 3403 c12 -2 30 -2 40 0 9 3 -1 5 -23 4 -22 0 -30 -2 -17 -4z"/>
<path d="M7181 3296 c-7 -8 -14 -28 -16 -45 -3 -24 0 -31 13 -31 10 0 18 8 19
18 1 9 5 29 9 45 7 29 -6 36 -25 13z"/>
<path d="M4935 3158 c-26 -10 -27 -12 -10 -18 26 -9 52 -2 59 16 6 16 -7 17
-49 2z"/>
<path d="M2705 3090 c-3 -5 3 -10 15 -10 12 0 18 5 15 10 -3 6 -10 10 -15 10
-5 0 -12 -4 -15 -10z"/>
<path d="M6649 2203 c-13 -16 -12 -17 4 -4 16 13 21 21 13 21 -2 0 -10 -8 -17
-17z"/>
<path d="M6600 2140 c-12 -16 -19 -30 -16 -30 2 0 14 14 26 30 12 17 19 30 16
30 -2 0 -14 -13 -26 -30z"/>
<path d="M6581 2059 c-34 -44 -61 -90 -61 -102 0 -21 0 -21 19 -2 10 11 36 52
56 90 20 39 42 76 47 83 6 6 8 12 5 12 -3 0 -33 -36 -66 -81z"/>
<path d="M6413 1843 c-75 -106 -98 -144 -61 -100 13 15 29 27 35 27 18 0 103
121 103 147 0 13 -2 23 -4 23 -2 0 -35 -44 -73 -97z"/>
<path d="M6349 1803 c-13 -16 -12 -17 4 -4 16 13 21 21 13 21 -2 0 -10 -8 -17
-17z"/>
<path d="M6319 1763 c-13 -16 -12 -17 4 -4 16 13 21 21 13 21 -2 0 -10 -8 -17
-17z"/>
<path d="M5895 1030 c-9 -16 -13 -30 -11 -30 3 0 12 14 21 30 9 17 13 30 11
30 -3 0 -12 -13 -21 -30z"/>
<path d="M5767 803 c-30 -54 -94 -170 -142 -258 -48 -88 -90 -163 -92 -167 -2
-5 -2 -8 1 -8 2 0 14 16 26 36 12 19 44 61 71 92 35 41 45 60 38 69 -12 14 48
136 62 127 17 -10 39 25 39 61 0 22 6 38 15 41 8 4 13 9 11 13 -3 4 4 26 14
49 11 23 17 42 16 42 -2 0 -29 -44 -59 -97z"/>
<path d="M5376 174 c-40 -52 -43 -61 -20 -61 15 0 70 94 61 104 -3 2 -21 -17
-41 -43z"/>
<path d="M1883 98 c-24 -28 -63 -84 -63 -92 0 -3 11 -6 25 -6 19 0 33 11 55
46 39 62 27 100 -17 52z"/>
<path d="M5300 35 c-7 -9 -8 -15 -2 -15 5 0 12 7 16 15 3 8 4 15 2 15 -2 0 -9
-7 -16 -15z"/>
</g>
</svg>
