<?xml version="1.0" standalone="no"?>
<!DOCTYPE svg PUBLIC "-//W3C//DTD SVG 20010904//EN"
 "http://www.w3.org/TR/2001/REC-SVG-20010904/DTD/svg10.dtd">
<svg version="1.0" xmlns="http://www.w3.org/2000/svg"
 width="1254.000000pt" height="1254.000000pt" viewBox="0 0 1254.000000 1254.000000"
 preserveAspectRatio="xMidYMid meet">

<g transform="translate(0.000000,1254.000000) scale(0.100000,-0.100000)"
fill="#1B2E6E" stroke="none">
<path d="M6260 9715 c-39 -12 -302 -159 -840 -470 -74 -43 -256 -147 -405
-232 -148 -86 -280 -164 -292 -176 -62 -57 -88 -169 -61 -260 24 -81 65 -110
598 -423 278 -163 638 -375 802 -471 163 -96 300 -182 305 -191 4 -9 10 -243
13 -519 5 -486 6 -502 26 -530 59 -81 176 -93 281 -30 32 19 159 94 283 167
124 73 391 232 594 353 331 197 371 218 392 208 l24 -11 0 -339 c0 -338 0
-340 -22 -365 -13 -13 -293 -187 -623 -386 -330 -199 -636 -384 -680 -411 -89
-54 -144 -67 -199 -49 -20 6 -213 120 -429 252 -216 133 -425 261 -465 285
-39 25 -78 54 -85 66 -9 17 -13 180 -17 674 -5 640 -5 652 -26 680 -20 27
-145 106 -533 338 l-185 110 -140 7 c-78 3 -160 7 -184 7 -31 1 -44 6 -49 19
-3 9 -17 32 -30 50 -74 100 -246 95 -319 -9 -83 -120 -2 -293 144 -307 70 -6
150 31 188 87 26 40 27 41 78 36 28 -2 103 -7 166 -10 l115 -5 295 -177 c162
-97 310 -187 328 -200 l32 -24 0 -230 c0 -126 -4 -229 -8 -229 -5 0 -82 46
-173 101 -90 56 -178 110 -195 120 -24 15 -65 21 -210 29 -98 5 -182 10 -185
10 -4 0 -12 13 -19 29 -25 61 -105 111 -177 111 -82 -1 -175 -73 -189 -145 -3
-20 -4 -58 -2 -85 17 -171 263 -223 358 -76 l25 39 164 -7 165 -7 223 -136
223 -136 0 -294 c0 -161 -2 -293 -4 -293 -3 0 -80 48 -173 106 -193 122 -217
134 -275 134 -24 0 -66 3 -95 6 -42 5 -53 11 -57 28 -8 32 -73 94 -113 107
-55 18 -136 7 -182 -25 -93 -65 -110 -208 -33 -290 57 -61 159 -83 225 -50 40
20 97 74 97 91 0 10 22 13 88 13 102 0 56 23 482 -245 359 -227 1008 -625
1071 -658 48 -25 68 -29 132 -29 53 1 89 6 119 20 24 11 243 141 488 289 245
148 549 332 675 408 127 76 241 148 253 159 13 12 34 39 45 61 21 39 22 50 22
412 0 361 -1 372 -21 400 -11 15 -36 39 -55 51 -29 20 -43 23 -94 20 -55 -4
-73 -13 -210 -95 -221 -133 -1075 -637 -1112 -656 -45 -24 -80 -21 -98 6 -13
21 -15 87 -13 511 l3 488 95 55 c52 31 390 224 750 430 360 207 666 385 678
397 43 39 73 112 74 180 1 111 -45 184 -155 247 -40 23 -290 173 -557 332
-688 411 -849 506 -903 534 -60 31 -163 39 -227 18z m815 -526 c363 -217 701
-419 751 -448 113 -64 135 -87 141 -143 6 -63 -19 -96 -118 -153 -46 -26 -313
-181 -594 -343 -280 -162 -583 -337 -672 -389 l-162 -93 -98 59 c-54 32 -339
200 -633 374 -784 462 -861 509 -882 538 -23 30 -26 76 -9 118 11 25 71 63
384 243 205 117 539 309 742 426 l370 212 60 -3 c59 -3 68 -8 720 -398z
m-2855 -1199 c19 -35 12 -77 -16 -99 -35 -28 -69 -26 -99 4 -57 56 2 149 78
123 15 -6 32 -18 37 -28z m213 -741 c43 -53 -12 -143 -77 -123 -38 12 -56 35
-56 75 0 72 86 103 133 48z m174 -741 c31 -29 30 -72 -2 -103 -68 -69 -170 31
-103 102 28 30 74 30 105 1z"/>
<path d="M9169 4841 c-17 -13 -23 -29 -23 -56 0 -70 81 -102 123 -49 28 35 26
69 -4 99 -29 30 -64 32 -96 6z"/>
<path d="M2420 4395 l0 -445 355 0 355 0 0 45 0 45 -305 0 -305 0 0 160 0 160
255 0 255 0 0 45 0 45 -255 0 -255 0 0 150 0 150 300 0 300 0 0 45 0 45 -350
0 -350 0 0 -445z"/>
<path d="M4050 4670 c0 -93 -2 -170 -5 -170 -2 0 -16 12 -30 26 -14 14 -51 37
-83 52 -51 24 -68 27 -162 26 -86 0 -114 -4 -154 -22 -75 -34 -120 -75 -156
-144 -28 -53 -35 -76 -38 -143 -8 -148 52 -256 176 -317 62 -31 73 -33 172
-33 121 0 177 19 243 83 l37 36 0 -58 0 -57 48 3 47 3 3 443 2 442 -50 0 -50
0 0 -170z m-169 -162 c103 -35 159 -108 167 -218 4 -61 1 -76 -22 -125 -46
-93 -124 -135 -250 -135 -168 0 -270 112 -253 277 10 94 67 168 156 199 45 17
157 18 202 2z"/>
<path d="M5550 4395 l0 -445 50 0 50 0 2 362 3 362 170 -308 170 -307 48 3 49
3 65 115 c36 63 113 200 171 303 l107 189 3 -361 2 -361 50 0 50 0 0 445 0
446 -62 -3 -63 -3 -103 -185 c-220 -393 -265 -470 -271 -470 -3 0 -17 22 -31
48 -14 26 -95 174 -180 330 l-155 282 -62 0 -63 0 0 -445z"/>
<path d="M7890 4685 l0 -84 -62 -3 -63 -3 -3 -37 -3 -38 48 -2 c26 0 55 -1 63
-2 13 -1 16 -37 20 -238 5 -221 6 -238 26 -265 39 -52 80 -68 171 -68 45 0 87
5 92 10 6 6 8 27 4 48 l-6 38 -52 -6 c-36 -5 -62 -2 -88 8 -51 22 -58 57 -55
284 l3 188 98 3 97 3 0 39 0 40 -100 0 -100 0 0 85 0 85 -45 0 -45 0 0 -85z"/>
<path d="M7075 4597 c-27 -8 -72 -23 -98 -35 l-48 -21 17 -33 c9 -18 18 -34
19 -36 2 -2 35 8 75 22 130 47 281 29 325 -38 9 -14 17 -46 18 -72 l2 -48 -50
5 c-93 8 -260 3 -301 -9 -51 -15 -101 -48 -128 -85 -17 -23 -21 -43 -21 -106
0 -69 3 -81 27 -113 15 -20 49 -47 75 -59 41 -20 63 -24 148 -24 83 0 109 4
152 23 28 13 59 32 69 43 25 28 32 24 36 -18 3 -38 3 -38 48 -38 l45 0 -3 242
c-2 180 -6 250 -16 275 -19 43 -71 93 -121 114 -52 22 -203 28 -270 11z m299
-343 c21 -8 22 -84 2 -122 -37 -71 -108 -105 -222 -106 -96 0 -139 20 -167 77
-15 31 -17 43 -7 71 25 75 91 98 261 91 64 -2 124 -8 133 -11z"/>
<path d="M8738 4600 c-43 -13 -95 -48 -123 -83 l-25 -32 0 58 0 57 -45 0 -45
0 0 -325 0 -325 45 0 45 0 0 128 c1 215 8 288 29 329 33 66 89 101 170 105
l51 3 0 48 0 47 -37 -1 c-21 0 -50 -4 -65 -9z"/>
<path d="M4520 4369 c0 -252 5 -287 52 -344 52 -63 98 -80 213 -80 111 1 159
17 223 78 l32 31 0 -52 0 -52 45 0 45 0 0 326 0 325 -47 -3 -48 -3 -5 -215
c-4 -174 -8 -221 -21 -245 -72 -131 -310 -143 -373 -20 -19 36 -21 62 -24 263
l-4 222 -44 0 -44 0 0 -231z"/>
<path d="M9170 4275 l0 -325 45 0 45 0 0 325 0 325 -45 0 -45 0 0 -325z"/>
<path d="M9590 4594 c0 -3 54 -73 119 -156 l120 -150 -126 -157 c-70 -86 -131
-162 -136 -168 -7 -10 4 -13 49 -12 l59 0 103 130 c56 71 106 129 110 129 4 0
52 -58 107 -130 l100 -129 58 -1 c32 0 56 3 53 8 -2 4 -61 79 -130 167 -69 88
-126 162 -126 165 1 3 54 70 120 150 66 80 120 148 120 153 0 4 -24 7 -54 7
l-54 0 -92 -115 c-51 -63 -96 -115 -101 -115 -5 0 -50 52 -101 115 l-92 115
-53 0 c-29 0 -53 -3 -53 -6z"/>
<path fill="#E4453A" d="M5731 3511 c2 -5 40 -91 84 -191 l80 -181 39 3 38 3 79 168 c102 220
99 209 55 205 -35 -3 -37 -5 -79 -98 -24 -52 -54 -119 -68 -149 l-25 -54 -66
149 -66 149 -37 3 c-22 2 -36 -1 -34 -7z"/>
<path fill="#E4453A" d="M6438 3513 c-2 -4 -3 -89 -3 -188 l0 -180 33 -3 32 -3 0 135 c0 75 3
136 8 135 4 0 57 -61 117 -135 100 -121 113 -134 143 -134 l32 0 0 191 0 190
-32 -3 -33 -3 -1 -130 c0 -71 -4 -129 -8 -128 -4 1 -55 60 -114 130 -91 109
-112 128 -139 131 -17 2 -33 -1 -35 -5z"/>
<path d="M3380 3340 c0 -12 9 -22 23 -25 12 -3 450 -4 972 -3 l950 3 3 23 3
22 -975 0 c-966 0 -976 0 -976 -20z"/>
<path d="M7210 3335 l0 -25 975 0 975 0 0 25 0 25 -975 0 -975 0 0 -25z"/>
</g>
</svg>
